HIERARCHY
ROOT hip
{
  OFFSET 0 0 0
  CHANNELS 6 Xposition Yposition Zposition Zrotation Yrotation Xrotation
  JOINT abdomen
  {
    OFFSET 0 20.6881 -0.73152
    CHANNELS 3 Zrotation Xrotation Yrotation
    JOINT chest
    {
      OFFSET 0 11.7043 -0.48768
      CHANNELS 3 Zrotation Xrotation Yrotation
      JOINT neck
      {
        OFFSET 0 22.1894 -2.19456
        CHANNELS 3 Zrotation Xrotation Yrotation
        JOINT head
        {
          OFFSET -0.24384 7.07133 1.2192
          CHANNELS 3 Zrotation Xrotation Yrotation
          JOINT leftEye
          {
            OFFSET 4.14528 8.04674 8.04672
            CHANNELS 3 Zrotation Xrotation Yrotation
            End Site
            {
              OFFSET 1 0 0
            }
          }
          JOINT rightEye
          {
            OFFSET -3.6576 8.04674 8.04672
            CHANNELS 3 Zrotation Xrotation Yrotation
            End Site
            {
              OFFSET 1 0 0
            }
          }
        }
      }
      JOINT rCollar
      {
        OFFSET -2.68224 19.2634 -4.8768
        CHANNELS 3 Zrotation Xrotation Yrotation
        JOINT rShldr
        {
          OFFSET -8.77824 -1.95073 1.46304
          CHANNELS 3 Zrotation Xrotation Yrotation
          JOINT rForeArm
          {
            OFFSET -28.1742 -1.7115 0.48768
            CHANNELS 3 Zrotation Xrotation Yrotation
            JOINT rHand
            {
              OFFSET -22.5879 0.773209 7.07136
              CHANNELS 3 Zrotation Xrotation Yrotation
              JOINT rThumb1
              {
                OFFSET -1.2192 -0.487915 3.41376
                CHANNELS 3 Zrotation Xrotation Yrotation
                JOINT rThumb2
                {
                  OFFSET -3.37035 -0.52449 3.41376
                  CHANNELS 3 Zrotation Xrotation Yrotation
                  End Site
                  {
                    OFFSET -1.78271 -1.18214 1.43049
                  }
                }
              }
              JOINT rIndex1
              {
                OFFSET -7.75947 0.938293 5.60832
                CHANNELS 3 Zrotation Xrotation Yrotation
                JOINT rIndex2
                {
                  OFFSET -2.54057 -0.884171 1.56538
                  CHANNELS 3 Zrotation Xrotation Yrotation
                  End Site
                  {
                    OFFSET -1.62519 -0.234802 1.16502
                  }
                }
              }
              JOINT rMid1
              {
                OFFSET -8.24714 1.18213 3.41376
                CHANNELS 3 Zrotation Xrotation Yrotation
                JOINT rMid2
                {
                  OFFSET -3.10165 -0.590103 1.0647
                  CHANNELS 3 Zrotation Xrotation Yrotation
                  End Site
                  {
                    OFFSET -2.48547 -0.328903 0.83742
                  }
                }
              }
              JOINT rRing1
              {
                OFFSET -8.82822 0.546677 1.51678
                CHANNELS 3 Zrotation Xrotation Yrotation
                JOINT rRing2
                {
                  OFFSET -2.60934 -0.819778 -0.0198488
                  CHANNELS 3 Zrotation Xrotation Yrotation
                  End Site
                  {
                    OFFSET -2.33842 -0.294052 0.168128
                  }
                }
              }
              JOINT rPinky1
              {
                OFFSET -8.27202 -0.0477905 -0.4584
                CHANNELS 3 Zrotation Xrotation Yrotation
                JOINT rPinky2
                {
                  OFFSET -1.82734 -0.647385 -0.700984
                  CHANNELS 3 Zrotation Xrotation Yrotation
                  End Site
                  {
                    OFFSET -1.69225 -0.51767 -0.607171
                  }
                }
              }
            }
          }
        }
      }
      JOINT lCollar
      {
        OFFSET 2.68224 19.2634 -4.8768
        CHANNELS 3 Zrotation Xrotation Yrotation
        JOINT lShldr
        {
          OFFSET 8.77824 -1.95073 1.46304
          CHANNELS 3 Zrotation Xrotation Yrotation
          JOINT lForeArm
          {
            OFFSET 28.1742 -1.7115 0.48768
            CHANNELS 3 Zrotation Xrotation Yrotation
            JOINT lHand
            {
              OFFSET 22.5879 0.773209 7.07136
              CHANNELS 3 Zrotation Xrotation Yrotation
              JOINT lThumb1
              {
                OFFSET 1.2192 -0.487915 3.41376
                CHANNELS 3 Zrotation Xrotation Yrotation
                JOINT lThumb2
                {
                  OFFSET 3.37035 -0.52449 3.41376
                  CHANNELS 3 Zrotation Xrotation Yrotation
                  End Site
                  {
                    OFFSET 1.78271 -1.18214 1.43049
                  }
                }
              }
              JOINT lIndex1
              {
                OFFSET 7.75947 0.938293 5.60832
                CHANNELS 3 Zrotation Xrotation Yrotation
                JOINT lIndex2
                {
                  OFFSET 2.54057 -0.884171 1.56538
                  CHANNELS 3 Zrotation Xrotation Yrotation
                  End Site
                  {
                    OFFSET 1.62519 -0.234802 1.16502
                  }
                }
              }
              JOINT lMid1
              {
                OFFSET 8.24714 1.18213 3.41376
                CHANNELS 3 Zrotation Xrotation Yrotation
                JOINT lMid2
                {
                  OFFSET 3.10165 -0.590103 1.0647
                  CHANNELS 3 Zrotation Xrotation Yrotation
                  End Site
                  {
                    OFFSET 2.48547 -0.328903 0.83742
                  }
                }
              }
              JOINT lRing1
              {
                OFFSET 8.82822 0.546677 1.51678
                CHANNELS 3 Zrotation Xrotation Yrotation
                JOINT lRing2
                {
                  OFFSET 2.60934 -0.819778 -0.0198488
                  CHANNELS 3 Zrotation Xrotation Yrotation
                  End Site
                  {
                    OFFSET 2.33842 -0.294052 0.168128
                  }
                }
              }
              JOINT lPinky1
              {
                OFFSET 8.27202 -0.0477905 -0.4584
                CHANNELS 3 Zrotation Xrotation Yrotation
                JOINT lPinky2
                {
                  OFFSET 1.82734 -0.647385 -0.700984
                  CHANNELS 3 Zrotation Xrotation Yrotation
                  End Site
                  {
                    OFFSET 1.69225 -0.51767 -0.607171
                  }
                }
              }
            }
          }
        }
      }
    }
  }
  JOINT rButtock
  {
    OFFSET -8.77824 4.35084 1.2192
    CHANNELS 3 Zrotation Xrotation Yrotation
    JOINT rThigh
    {
      OFFSET 0 -1.70687 -2.19456
      CHANNELS 3 Zrotation Xrotation Yrotation
      JOINT rShin
      {
        OFFSET 0 -36.8199 0.73152
        CHANNELS 3 Zrotation Xrotation Yrotation
        JOINT rFoot
        {
          OFFSET 0.73152 -45.1104 -5.12064
          CHANNELS 3 Zrotation Xrotation Yrotation
          End Site
          {
            OFFSET -1.1221 -3.69964 12.103
          }
        }
      }
    }
  }
  JOINT lButtock
  {
    OFFSET 8.77824 4.35084 1.2192
    CHANNELS 3 Zrotation Xrotation Yrotation
    JOINT lThigh
    {
      OFFSET 0 -1.70687 -2.19456
      CHANNELS 3 Zrotation Xrotation Yrotation
      JOINT lShin
      {
        OFFSET 0 -36.8199 0.73152
        CHANNELS 3 Zrotation Xrotation Yrotation
        JOINT lFoot
        {
          OFFSET -0.73152 -45.1104 -5.12064
          CHANNELS 3 Zrotation Xrotation Yrotation
          End Site
          {
            OFFSET 1.1221 -3.69964 12.103
          }
        }
      }
    }
  }
}
MOTION
Frames:	4
Frame Time:	0.00833333
-47.2285 82.8368 22.5314 -174.998 -5.9379 -171.899 5.64947 6.56287 2.29121 -2.19425 -0.639731 0.642094 2.99584 7.48209 -0.869078 -3.45273 -15.9989 -2.89124 -0.0 0.0 0.0 -0.0 0.0 0.0 -1.73678e-13 -5.53814e-14 1.82518e-13 61.7589 68.298 4.91471 -23.8602 -18.8398 49.1615 -0.0446091 5.98915 0.844863 1.03097e-09 3.89739e-09 -1.59421e-09 1.775e-09 6.74401e-09 -2.76205e-09 1.03097e-09 3.89737e-09 -1.59422e-09 7.73091 5.47488 0.417314 1.03097e-09 3.89739e-09 -1.59421e-09 2.90554 0.965183 0.102902 1.03097e-09 3.89739e-09 -1.59421e-09 10.2786 0.731801 0.0259123 1.03097e-09 3.89739e-09 -1.5942e-09 2.22167 -0.733487 -0.20892 -1.73739e-13 -5.53913e-14 1.82228e-13 -71.8455 50.3441 1.40056 27.9049 -30.0751 -67.3872 0.0616228 7.16524 -1.0121 -1.88174e-10 -3.27627e-11 1.0391e-09 -3.28231e-10 -8.65237e-11 1.79526e-09 -1.88172e-10 -3.27569e-11 1.0391e-09 -7.73091 5.47488 -0.417314 -1.88169e-10 -3.27547e-11 1.0391e-09 -2.90554 0.965183 -0.102902 -1.88178e-10 -3.27534e-11 1.0391e-09 -10.2786 0.731801 -0.0259123 -1.88171e-10 -3.27542e-11 1.03909e-09 -2.22167 -0.733487 0.20892 -2.03217e-16 0.0 -3.88251e-19 9.1102 -24.8092 -3.5342 -0.196534 34.89 0.808723 -4.12381 -16.0661 -10.2472 2.03217e-16 0.0 3.88251e-19 15.9841 -60.0747 11.9435 1.87183 68.6688 -2.29365 3.07721 24.8376 -8.76404
-47.1916 82.842 23.0875 -174.968 -5.2166 -171.701 5.66281 6.51658 2.5144 -2.22362 -0.620662 0.707566 2.94369 7.45941 -0.837186 -3.5616 -15.8228 -2.84092 -0.0 0.0 0.0 -0.0 0.0 0.0 -1.86038e-13 -1.59023e-13 1.13059e-13 58.5304 69.0196 7.53755 -24.0327 -19.1584 49.713 -0.0373173 5.50533 0.776137 4.73375e-10 4.788e-09 -2.14234e-09 8.09244e-10 8.27235e-09 -3.70275e-09 4.73376e-10 4.78798e-09 -2.14235e-09 7.73091 5.47488 0.417314 4.73373e-10 4.788e-09 -2.14234e-09 2.90554 0.965183 0.102902 4.73377e-10 4.788e-09 -2.14234e-09 10.2786 0.731801 0.0259123 4.7337e-10 4.78801e-09 -2.14233e-09 2.22167 -0.733487 -0.20892 -1.86099e-13 -1.59032e-13 1.12761e-13 -73.0267 50.2276 2.49369 27.7649 -29.3577 -66.2247 0.054203 6.62915 -0.935888 -1.67422e-09 5.27952e-09 2.79005e-09 -2.88381e-09 9.17788e-09 4.83283e-09 -1.67422e-09 5.27953e-09 2.79005e-09 -7.73091 5.47488 -0.417314 -1.67422e-09 5.27953e-09 2.79005e-09 -2.90554 0.965183 -0.102902 -1.67423e-09 5.27953e-09 2.79005e-09 -10.2786 0.731801 -0.0259123 -1.67422e-09 5.27953e-09 2.79004e-09 -2.22167 -0.733487 0.20892 -2.03217e-16 0.0 -3.88251e-19 8.9104 -25.109 -3.66563 -0.198208 34.8823 0.796912 -3.88435 -16.0251 -9.62061 2.03217e-16 0.0 3.88251e-19 16.4052 -60.455 12.1465 2.07965 70.1785 -2.51747 3.19714 26.4277 -8.51106
-47.1481 82.8561 23.5968 -174.782 -4.6356 -171.576 5.75266 6.50264 2.74594 -2.21989 -0.594863 0.775858 2.90623 7.41242 -0.799125 -3.71255 -15.6057 -2.7876 -0.0 0.0 0.0 -0.0 0.0 0.0 -2.13333e-13 -1.54899e-13 9.42829e-14 54.9116 69.6163 10.528 -24.1819 -19.4402 50.1942 -0.0295744 4.93035 0.694617 5.08048e-10 4.23914e-09 -1.83081e-09 8.69465e-10 7.32281e-09 -3.16301e-09 5.0805e-10 4.23912e-09 -1.83082e-09 7.73091 5.47488 0.417314 5.08047e-10 4.23914e-09 -1.83081e-09 2.90554 0.965183 0.102902 5.0805e-10 4.23914e-09 -1.83081e-09 10.2786 0.731801 0.0259123 5.08043e-10 4.23914e-09 -1.8308e-09 2.22167 -0.733487 -0.20892 -2.13386e-13 -1.54907e-13 9.40057e-14 -74.23 50.0053 3.52671 27.5982 -28.5868 -64.9536 0.0570673 6.77304 -0.956464 -1.35346e-09 5.93546e-09 2.39773e-09 -2.32981e-09 1.03169e-08 4.15338e-09 -1.35346e-09 5.93547e-09 2.39773e-09 -7.73091 5.47488 -0.417314 -1.35345e-09 5.93547e-09 2.39773e-09 -2.90554 0.965183 -0.102902 -1.35346e-09 5.93547e-09 2.39773e-09 -10.2786 0.731801 -0.0259123 -1.35345e-09 5.93547e-09 2.39772e-09 -2.22167 -0.733487 0.20892 -2.03217e-16 0.0 -3.88251e-19 8.74067 -25.4008 -3.88311 -0.200274 34.8688 0.782746 -3.59357 -15.9466 -8.86537 2.03217e-16 0.0 3.88251e-19 16.9477 -60.7643 12.4019 2.32173 71.6859 -2.77702 3.30747 27.887 -8.32712
-47.1374 82.8874 24.0554 -174.621 -4.395 -171.672 5.90018 6.50148 2.99248 -2.18677 -0.562727 0.848762 2.87075 7.34506 -0.757056 -3.89474 -15.3593 -2.73182 -0.0 0.0 0.0 -0.0 0.0 0.0 -2.4862e-13 -8.76616e-14 9.83052e-14 50.9736 70.0814 13.8069 -24.3184 -19.7036 50.6361 -0.0223831 4.29144 0.604222 8.51587e-10 2.74653e-09 -9.74828e-10 1.46501e-09 4.74739e-09 -1.68495e-09 8.51591e-10 2.74651e-09 -9.74836e-10 7.73091 5.47488 0.417314 8.51586e-10 2.74653e-09 -9.74825e-10 2.90554 0.965183 0.102902 8.5159e-10 2.74653e-09 -9.74825e-10 10.2786 0.731801 0.0259123 8.51583e-10 2.74653e-09 -9.74819e-10 2.22167 -0.733487 -0.20892 -2.48659e-13 -8.76663e-14 9.80692e-14 -75.4518 49.7067 4.50682 27.3985 -27.7583 -63.6083 0.0674569 7.38178 -1.0433 2.19917e-11 4.00734e-09 7.50808e-10 3.96247e-11 6.94639e-09 1.29819e-09 2.19924e-11 4.00735e-09 7.50812e-10 -7.73091 5.47488 -0.417314 2.19962e-11 4.00735e-09 7.50812e-10 -2.90554 0.965183 -0.102902 2.19892e-11 4.00735e-09 7.50808e-10 -10.2786 0.731801 -0.0259123 2.19983e-11 4.00736e-09 7.50806e-10 -2.22167 -0.733487 0.20892 -2.03217e-16 0.0 -3.88251e-19 8.57155 -25.7062 -4.1977 -0.202996 34.8644 0.766291 -3.24533 -15.8364 -7.95552 2.03217e-16 0.0 3.88251e-19 17.5896 -61.0194 12.705 2.60644 73.1858 -3.08 3.40873 29.2684 -8.17651
